# xmcd
#
# Track frame offsets:
#	150
#	14485
#	32500
#	46467
#	61610
#	74787
#	91320
#	109430
#	123165
#	135927
#
# Disc length: 2052 seconds
#
# Revision: 0
# Processed by: cddbd v1.5PL3 Copyright (c) Steve Scherf et al.
# Submitted via: audiograbber 1.82.02
#
DISCID=8408020a
DTITLE=Various Artist - Greatest Country Hits Of The 90's- 1990 Vol. 2
DYEAR=1990
DGENRE=country
TTITLE0=Ricky Skaggs - Hummingbird
TTITLE1=Shelby Lynne - Things Are Tough All Over
TTITLE2=Willie Nelson - Ain't Necessarily So
TTITLE3=Joe Diffie - Home
TTITLE4=Doug Stone - Fourteen Minutes Old
TTITLE5=Shenandoah - Next To You, Next To Me
TTITLE6=Mary Chapin- Carpenter - You Win Again
TTITLE7=Ricky Van Shelton - I Ment Every Word He Said
TTITLE8=Rodney Crowell - My Past Is Present
TTITLE9=Vern Gosdin - That Just About Does It
EXTD=
EXTT0=
EXTT1=
EXTT2=
EXTT3=
EXTT4=
EXTT5=
EXTT6=
EXTT7=
EXTT8=
EXTT9=
PLAYORDER=
